<svg width="190" height="93" viewBox="0 0 190 93" fill="none" xmlns="http://www.w3.org/2000/svg">
<rect width="190" height="93" fill="white"/>
<path d="M76.7607 26.9474L73 31L81.2735 30.6316L82.0256 26.9474L84.6581 26.5789L87.6667 21.0526L88.4188 20.6842C89.0063 19.9648 89.1709 18.8421 89.9231 18.8421C90.6752 18.8421 98.5727 23.2632 98.5727 23.2632L92.9316 31L98.9487 28.7895V26.9474L102.333 26.2105C102.333 26.2105 103.085 20.6842 103.462 21.0526C103.838 21.4211 117 31 117 31L110.607 22.8947L109.103 24.3684L104.59 18.1053L98.9487 21.4211L93.3077 17.7368L91.8034 18.4737L89.1709 17L87.2906 19.9474L84.6581 19.2105L78.641 26.9474H76.7607Z" fill="#1B4D98"/>
<path d="M34.3652 48.3594V55.0098H32.627V40.7422H34.3652V46.8164H40.7715V40.7422H42.4902V55.0098H40.7715V48.3594H34.3652ZM46.4062 43.0859C46.1849 43.3724 45.8854 43.5156 45.5078 43.5156C45.1302 43.5156 44.8275 43.3724 44.5996 43.0859C44.3783 42.7995 44.2676 42.4544 44.2676 42.0508C44.2676 41.7578 44.3359 41.4941 44.4727 41.2598C44.6094 41.0189 44.7852 40.8398 45 40.7227C45.1497 40.6315 45.319 40.5859 45.5078 40.5859C45.8854 40.5859 46.1849 40.7292 46.4062 41.0156C46.6341 41.3021 46.748 41.6471 46.748 42.0508C46.748 42.4544 46.6341 42.7995 46.4062 43.0859ZM46.3672 55.0098H44.6777V44.6875H46.3672V55.0098ZM50.2637 45.5957C50.4395 45.3678 50.6348 45.1693 50.8496 45C51.0645 44.8307 51.3216 44.6875 51.6211 44.5703C51.9271 44.4531 52.2461 44.3945 52.5781 44.3945C53.2227 44.3945 53.7858 44.5475 54.2676 44.8535C54.7559 45.1595 55.1497 45.5632 55.4492 46.0645C55.7552 45.5566 56.1523 45.153 56.6406 44.8535C57.1354 44.5475 57.7083 44.3945 58.3594 44.3945C58.7826 44.3945 59.1732 44.4596 59.5312 44.5898C59.8893 44.7201 60.2018 44.9023 60.4688 45.1367C60.7357 45.3646 60.9635 45.6217 61.1523 45.9082C61.3411 46.1947 61.5007 46.5104 61.6309 46.8555C61.8327 47.4023 61.9336 48.0371 61.9336 48.7598V54.9512H60.2441V48.8281C60.2441 48.0078 60.0749 47.3438 59.7363 46.8359C59.3978 46.3216 58.877 46.0645 58.1738 46.0645C57.4902 46.0645 56.9759 46.3151 56.6309 46.8164C56.2858 47.3177 56.1133 47.9655 56.1133 48.7598V54.9512H54.4238V48.8281C54.4238 48.0078 54.2546 47.3438 53.916 46.8359C53.5775 46.3216 53.0566 46.0645 52.3535 46.0645C51.6634 46.0645 51.1458 46.3249 50.8008 46.8457C50.4622 47.36 50.293 48.0208 50.293 48.8281V54.9512H48.6035V44.6191H50.1953L50.2637 45.5957ZM67.9004 45.8789C66.8197 45.8789 66.1523 46.4258 65.8984 47.5195L64.209 47.0605C64.4889 46.2337 64.9479 45.5762 65.5859 45.0879C66.224 44.5996 67.0345 44.3555 68.0176 44.3555C68.6426 44.3555 69.2057 44.4596 69.707 44.668C70.2148 44.8698 70.6348 45.1465 70.9668 45.498C71.2988 45.8431 71.5625 46.2565 71.7578 46.7383C71.9792 47.2721 72.0898 47.9036 72.0898 48.6328V55.0098H70.4297L70.3516 53.9648C69.5768 54.7982 68.6003 55.2148 67.4219 55.2148C66.6016 55.2148 65.8952 55.0456 65.3027 54.707C64.7168 54.362 64.2871 53.8932 64.0137 53.3008C63.8314 52.8971 63.7402 52.4512 63.7402 51.9629C63.7402 51.5137 63.8118 51.1035 63.9551 50.7324C64.0983 50.3548 64.2969 50.0326 64.5508 49.7656C64.8047 49.4922 65.0879 49.2643 65.4004 49.082C65.7194 48.8932 66.0645 48.7435 66.4355 48.6328C66.9564 48.4766 67.4902 48.3984 68.0371 48.3984C68.8704 48.3984 69.6191 48.5677 70.2832 48.9062V48.6133C70.2832 47.7409 70.0879 47.0671 69.6973 46.5918C69.3066 46.1165 68.7077 45.8789 67.9004 45.8789ZM68.0859 49.9219C67.3242 49.9219 66.7122 50.0879 66.25 50.4199C65.7943 50.7454 65.5664 51.2435 65.5664 51.9141C65.5664 53.0729 66.3053 53.6523 67.7832 53.6523C68.3561 53.6523 68.8411 53.5189 69.2383 53.252C69.6419 52.9785 69.9316 52.6172 70.1074 52.168C70.2246 51.862 70.2832 51.5332 70.2832 51.1816V50.4785C69.7689 50.1074 69.0365 49.9219 68.0859 49.9219ZM74.248 55.0098V40.7715H75.9375V55.0098H74.248ZM81.9629 45.8789C80.8822 45.8789 80.2148 46.4258 79.9609 47.5195L78.2715 47.0605C78.5514 46.2337 79.0104 45.5762 79.6484 45.0879C80.2865 44.5996 81.097 44.3555 82.0801 44.3555C82.7051 44.3555 83.2682 44.4596 83.7695 44.668C84.2773 44.8698 84.6973 45.1465 85.0293 45.498C85.3613 45.8431 85.625 46.2565 85.8203 46.7383C86.0417 47.2721 86.1523 47.9036 86.1523 48.6328V55.0098H84.4922L84.4141 53.9648C83.6393 54.7982 82.6628 55.2148 81.4844 55.2148C80.6641 55.2148 79.9577 55.0456 79.3652 54.707C78.7793 54.362 78.3496 53.8932 78.0762 53.3008C77.8939 52.8971 77.8027 52.4512 77.8027 51.9629C77.8027 51.5137 77.8743 51.1035 78.0176 50.7324C78.1608 50.3548 78.3594 50.0326 78.6133 49.7656C78.8672 49.4922 79.1504 49.2643 79.4629 49.082C79.7819 48.8932 80.127 48.7435 80.498 48.6328C81.0189 48.4766 81.5527 48.3984 82.0996 48.3984C82.9329 48.3984 83.6816 48.5677 84.3457 48.9062V48.6133C84.3457 47.7409 84.1504 47.0671 83.7598 46.5918C83.3691 46.1165 82.7702 45.8789 81.9629 45.8789ZM82.1484 49.9219C81.3867 49.9219 80.7747 50.0879 80.3125 50.4199C79.8568 50.7454 79.6289 51.2435 79.6289 51.9141C79.6289 53.0729 80.3678 53.6523 81.8457 53.6523C82.4186 53.6523 82.9036 53.5189 83.3008 53.252C83.7044 52.9785 83.9941 52.6172 84.1699 52.168C84.2871 51.862 84.3457 51.5332 84.3457 51.1816V50.4785C83.8314 50.1074 83.099 49.9219 82.1484 49.9219ZM88.4961 57.4512C88.6328 57.5488 88.7337 57.6172 88.7988 57.6562C88.8639 57.7018 88.9648 57.7507 89.1016 57.8027C89.2448 57.8548 89.3848 57.8809 89.5215 57.8809C89.9382 57.8809 90.3255 57.6497 90.6836 57.1875C90.7747 57.0703 90.8626 56.9368 90.9473 56.7871C91.0384 56.6374 91.1165 56.4974 91.1816 56.3672C91.2467 56.237 91.3184 56.0742 91.3965 55.8789C91.4746 55.6901 91.5365 55.5339 91.582 55.4102C91.6276 55.293 91.6895 55.127 91.7676 54.9121C91.8457 54.6973 91.9043 54.5378 91.9434 54.4336L87.9199 44.668H89.7656L92.8711 52.3047L95.8105 44.668H97.666L93.623 54.9316C93.4798 55.2962 93.3822 55.5371 93.3301 55.6543C93.2845 55.778 93.1868 56.0091 93.0371 56.3477C92.8939 56.6862 92.7767 56.9303 92.6855 57.0801C92.6009 57.2298 92.474 57.4382 92.3047 57.7051C92.1419 57.972 91.9857 58.1771 91.8359 58.3203C91.6927 58.4701 91.5202 58.6263 91.3184 58.7891C91.123 58.9518 90.9147 59.082 90.6934 59.1797C90.3809 59.3229 90.0391 59.3945 89.668 59.3945C89.3164 59.3945 88.9616 59.3229 88.6035 59.1797C88.252 59.0365 87.9557 58.8639 87.7148 58.6621L88.4961 57.4512ZM103.604 45.8789C102.523 45.8789 101.855 46.4258 101.602 47.5195L99.9121 47.0605C100.192 46.2337 100.651 45.5762 101.289 45.0879C101.927 44.5996 102.738 44.3555 103.721 44.3555C104.346 44.3555 104.909 44.4596 105.41 44.668C105.918 44.8698 106.338 45.1465 106.67 45.498C107.002 45.8431 107.266 46.2565 107.461 46.7383C107.682 47.2721 107.793 47.9036 107.793 48.6328V55.0098H106.133L106.055 53.9648C105.28 54.7982 104.303 55.2148 103.125 55.2148C102.305 55.2148 101.598 55.0456 101.006 54.707C100.42 54.362 99.9902 53.8932 99.7168 53.3008C99.5345 52.8971 99.4434 52.4512 99.4434 51.9629C99.4434 51.5137 99.515 51.1035 99.6582 50.7324C99.8014 50.3548 100 50.0326 100.254 49.7656C100.508 49.4922 100.791 49.2643 101.104 49.082C101.423 48.8932 101.768 48.7435 102.139 48.6328C102.66 48.4766 103.193 48.3984 103.74 48.3984C104.574 48.3984 105.322 48.5677 105.986 48.9062V48.6133C105.986 47.7409 105.791 47.0671 105.4 46.5918C105.01 46.1165 104.411 45.8789 103.604 45.8789ZM103.789 49.9219C103.027 49.9219 102.415 50.0879 101.953 50.4199C101.497 50.7454 101.27 51.2435 101.27 51.9141C101.27 53.0729 102.008 53.6523 103.486 53.6523C104.059 53.6523 104.544 53.5189 104.941 53.252C105.345 52.9785 105.635 52.6172 105.811 52.168C105.928 51.862 105.986 51.5332 105.986 51.1816V50.4785C105.472 50.1074 104.74 49.9219 103.789 49.9219ZM111.416 45.5762C112.061 44.7689 112.962 44.3652 114.121 44.3652C115.033 44.3652 115.798 44.5768 116.416 45C117.035 45.4167 117.497 45.9896 117.803 46.7188C118.037 47.2721 118.154 47.9427 118.154 48.7305V55H116.455V48.8281C116.455 47.9818 116.237 47.3047 115.801 46.7969C115.365 46.2891 114.753 46.0352 113.965 46.0352C113.392 46.0352 112.91 46.1751 112.52 46.4551C112.129 46.735 111.842 47.1126 111.66 47.5879C111.517 47.9395 111.445 48.3529 111.445 48.8281V55H109.756V44.5898H111.348L111.416 45.5762ZM120.049 55.0098V40.7324H128.584V42.2754H121.787V46.8164H128.027V48.3594H121.787V53.4766H128.906V55.0098H120.049ZM134.814 45.8789C133.734 45.8789 133.066 46.4258 132.812 47.5195L131.123 47.0605C131.403 46.2337 131.862 45.5762 132.5 45.0879C133.138 44.5996 133.949 44.3555 134.932 44.3555C135.557 44.3555 136.12 44.4596 136.621 44.668C137.129 44.8698 137.549 45.1465 137.881 45.498C138.213 45.8431 138.477 46.2565 138.672 46.7383C138.893 47.2721 139.004 47.9036 139.004 48.6328V55.0098H137.344L137.266 53.9648C136.491 54.7982 135.514 55.2148 134.336 55.2148C133.516 55.2148 132.809 55.0456 132.217 54.707C131.631 54.362 131.201 53.8932 130.928 53.3008C130.745 52.8971 130.654 52.4512 130.654 51.9629C130.654 51.5137 130.726 51.1035 130.869 50.7324C131.012 50.3548 131.211 50.0326 131.465 49.7656C131.719 49.4922 132.002 49.2643 132.314 49.082C132.633 48.8932 132.979 48.7435 133.35 48.6328C133.87 48.4766 134.404 48.3984 134.951 48.3984C135.785 48.3984 136.533 48.5677 137.197 48.9062V48.6133C137.197 47.7409 137.002 47.0671 136.611 46.5918C136.221 46.1165 135.622 45.8789 134.814 45.8789ZM135 49.9219C134.238 49.9219 133.626 50.0879 133.164 50.4199C132.708 50.7454 132.48 51.2435 132.48 51.9141C132.48 53.0729 133.219 53.6523 134.697 53.6523C135.27 53.6523 135.755 53.5189 136.152 53.252C136.556 52.9785 136.846 52.6172 137.021 52.168C137.139 51.862 137.197 51.5332 137.197 51.1816V50.4785C136.683 50.1074 135.951 49.9219 135 49.9219ZM146.758 47.1191C146.328 46.3835 145.638 46.0156 144.688 46.0156C143.743 46.0156 143.132 46.276 142.852 46.7969C142.767 46.9466 142.725 47.1029 142.725 47.2656C142.725 47.3893 142.738 47.5033 142.764 47.6074C142.796 47.7116 142.852 47.8092 142.93 47.9004C143.014 47.985 143.079 48.0534 143.125 48.1055C143.177 48.151 143.275 48.2096 143.418 48.2812C143.561 48.3464 143.652 48.3887 143.691 48.4082C143.73 48.4212 143.831 48.4603 143.994 48.5254C144.098 48.5645 144.248 48.6165 144.443 48.6816C144.645 48.7467 144.779 48.7891 144.844 48.8086L145.049 48.877C145.407 48.9941 145.69 49.0918 145.898 49.1699C146.107 49.248 146.364 49.3587 146.67 49.502C146.982 49.6452 147.233 49.7884 147.422 49.9316C147.617 50.0749 147.809 50.2572 147.998 50.4785C148.187 50.6934 148.33 50.9277 148.428 51.1816C148.532 51.4486 148.584 51.748 148.584 52.0801C148.584 52.972 148.184 53.7272 147.383 54.3457C147.142 54.528 146.872 54.6875 146.572 54.8242C146.279 54.9609 145.947 55.0684 145.576 55.1465C145.212 55.2246 144.834 55.2637 144.443 55.2637C142.979 55.2637 141.829 54.7917 140.996 53.8477C140.736 53.5482 140.531 53.2064 140.381 52.8223L142.031 52.0215C142.135 52.5358 142.399 52.9362 142.822 53.2227C143.245 53.5026 143.779 53.6426 144.424 53.6426C144.925 53.6426 145.368 53.5612 145.752 53.3984C146.136 53.2357 146.419 53.0013 146.602 52.6953C146.719 52.5065 146.777 52.3014 146.777 52.0801C146.777 51.8783 146.729 51.6992 146.631 51.543C146.54 51.3802 146.432 51.2533 146.309 51.1621C146.191 51.071 146.042 50.9831 145.859 50.8984C145.586 50.7747 145.238 50.6478 144.814 50.5176C144.398 50.3874 144.023 50.2799 143.691 50.1953C143.366 50.1042 143.021 49.9772 142.656 49.8145C142.292 49.6517 141.989 49.4727 141.748 49.2773C141.507 49.082 141.305 48.8118 141.143 48.4668C140.986 48.1217 140.908 47.7214 140.908 47.2656C140.908 46.5039 141.263 45.8464 141.973 45.293C142.715 44.7201 143.607 44.4336 144.648 44.4336C145.482 44.4336 146.208 44.6126 146.826 44.9707C147.451 45.3288 147.959 45.8138 148.35 46.4258L146.758 47.1191ZM159.16 52.5098C158.796 53.3561 158.271 54.0234 157.588 54.5117C156.911 55 156.068 55.2441 155.059 55.2441C154.499 55.2441 153.984 55.1628 153.516 55C153.047 54.8372 152.64 54.6094 152.295 54.3164C151.956 54.0169 151.667 53.6816 151.426 53.3105C151.185 52.9329 150.99 52.5163 150.84 52.0605C150.618 51.3965 150.508 50.6608 150.508 49.8535C150.508 48.6165 150.736 47.5586 151.191 46.6797C151.654 45.7943 152.305 45.153 153.145 44.7559C153.685 44.502 154.277 44.375 154.922 44.375C155.482 44.375 155.993 44.4629 156.455 44.6387C156.917 44.8145 157.311 45.0618 157.637 45.3809C157.962 45.6934 158.236 46.0449 158.457 46.4355C158.685 46.8262 158.874 47.2591 159.023 47.7344C159.238 48.4635 159.346 49.2936 159.346 50.2246H152.246C152.259 51.2663 152.5 52.1029 152.969 52.7344C153.444 53.3594 154.15 53.6719 155.088 53.6719C156.24 53.6719 157.057 53.125 157.539 52.0312L159.16 52.5098ZM157.471 48.6914C157.256 47.3568 156.712 46.5039 155.84 46.1328C155.56 46.0156 155.264 45.957 154.951 45.957C154.411 45.957 153.949 46.1068 153.564 46.4062C153.187 46.6992 152.891 47.0801 152.676 47.5488C152.513 47.8874 152.406 48.2682 152.354 48.6914H157.471Z" fill="#1F5099"/>
<path d="M18.6 63.13C18.6 63.25 18.4967 63.4267 18.29 63.66C18.0433 63.94 17.4 64.8 16.36 66.24C16.3733 67.1 16.4 67.69 16.44 68.01C16.46 68.21 16.47 68.3533 16.47 68.44C16.47 68.66 16.43 68.81 16.35 68.89C16.2767 68.9633 16.1467 69 15.96 69C15.82 69 15.6867 68.96 15.56 68.88C15.44 68.7933 15.38 68.69 15.38 68.57C15.38 68.0833 15.37 67.37 15.35 66.43C15.35 66.39 15.3233 66.3233 15.27 66.23C15.2167 66.1367 15.1833 66.0767 15.17 66.05C15.03 65.8033 14.8533 65.53 14.64 65.23C14.4333 64.9233 14.2533 64.6933 14.1 64.54C13.8067 64.2467 13.5767 63.9833 13.41 63.75C13.2433 63.51 13.16 63.34 13.16 63.24C13.16 63.1 13.2233 62.99 13.35 62.91C13.4833 62.8233 13.6267 62.78 13.78 62.78C13.8667 62.78 13.9567 62.8033 14.05 62.85C14.15 62.8967 14.23 62.9633 14.29 63.05C14.6833 63.6367 15.0333 64.1233 15.34 64.51L15.81 65.12C16.0967 64.8267 16.3467 64.5367 16.56 64.25C16.78 63.9567 17.02 63.61 17.28 63.21L17.45 62.95C17.5767 62.7767 17.7733 62.69 18.04 62.69C18.1667 62.69 18.29 62.7267 18.41 62.8C18.5367 62.8733 18.6 62.9833 18.6 63.13ZM22.5193 65.79C22.5726 65.8833 22.616 66.02 22.6493 66.2C22.6826 66.3733 22.6993 66.53 22.6993 66.67C22.6993 66.93 22.6426 67.3 22.5293 67.78C22.0693 68.62 21.3893 69.04 20.4893 69.04C20.156 69.04 19.816 68.93 19.4693 68.71C19.1226 68.49 18.8826 68.2367 18.7493 67.95C18.5693 67.3767 18.4793 67.0133 18.4793 66.86C18.4793 66.5933 18.536 66.31 18.6493 66.01C18.7693 65.71 18.9193 65.45 19.0993 65.23C19.2126 65.0767 19.416 64.9467 19.7093 64.84C20.0026 64.7267 20.2693 64.67 20.5093 64.67C20.976 64.67 21.3726 64.76 21.6993 64.94C22.026 65.1133 22.2993 65.3967 22.5193 65.79ZM21.6493 67.4C21.6826 67.3133 21.6993 67.09 21.6993 66.73C21.6993 66.5367 21.6626 66.3467 21.5893 66.16C21.5226 65.9733 21.4226 65.8133 21.2893 65.68C21.276 65.6667 21.2393 65.6467 21.1793 65.62C21.1193 65.5867 21.036 65.5567 20.9293 65.53C20.8293 65.4967 20.7126 65.48 20.5793 65.48C20.206 65.48 19.9326 65.63 19.7593 65.93C19.586 66.23 19.4993 66.57 19.4993 66.95C19.4993 67.0167 19.516 67.1433 19.5493 67.33C19.5893 67.5167 19.6226 67.6333 19.6493 67.68C19.6693 67.7267 19.7193 67.7933 19.7993 67.88C19.886 67.96 19.9893 68.0333 20.1093 68.1C20.236 68.16 20.366 68.19 20.4993 68.19C20.7993 68.19 21.0393 68.12 21.2193 67.98C21.3993 67.8333 21.5426 67.64 21.6493 67.4ZM24.1065 64.66C24.5465 64.66 24.7665 64.95 24.7665 65.53C24.7665 65.6033 24.7598 65.7667 24.7465 66.02C24.7332 66.3133 24.7265 66.5433 24.7265 66.71C24.7265 67.1767 24.7898 67.5533 24.9165 67.84C24.9632 67.9333 25.0465 68.0067 25.1665 68.06C25.2932 68.1133 25.3998 68.14 25.4865 68.14C25.6198 68.14 25.7298 68.1233 25.8165 68.09C25.9032 68.0567 25.9832 68.0067 26.0565 67.94C26.1365 67.8733 26.2132 67.8 26.2865 67.72C26.4132 67.58 26.4932 67.42 26.5265 67.24C26.5665 67.0533 26.5898 66.8067 26.5965 66.5C26.5965 66.3067 26.6065 66.12 26.6265 65.94C26.6665 65.6467 26.6865 65.3733 26.6865 65.12C26.6865 64.98 26.7232 64.8633 26.7965 64.77C26.8765 64.67 26.9898 64.62 27.1365 64.62C27.2098 64.62 27.2965 64.6467 27.3965 64.7C27.5032 64.7467 27.5732 64.8 27.6065 64.86C27.6532 64.94 27.6765 65.05 27.6765 65.19C27.6765 65.2767 27.6665 65.3567 27.6465 65.43C27.6132 65.53 27.5965 65.6567 27.5965 65.81C27.5965 65.89 27.6032 66.0233 27.6165 66.21C27.6365 66.35 27.6465 66.4933 27.6465 66.64C27.6465 67.0867 27.6798 67.4167 27.7465 67.63C27.8198 67.8567 27.9198 68.0567 28.0465 68.23C28.1798 68.37 28.2698 68.4733 28.3165 68.54C28.3632 68.6 28.3865 68.6533 28.3865 68.7C28.3865 68.78 28.3465 68.8567 28.2665 68.93C28.1865 69.0033 28.1032 69.04 28.0165 69.04C27.7698 69.04 27.5532 68.9567 27.3665 68.79C27.1865 68.6167 27.0532 68.3967 26.9665 68.13C26.8932 68.2167 26.7965 68.3233 26.6765 68.45C26.5565 68.5767 26.4432 68.68 26.3365 68.76C26.0765 68.9467 25.7432 69.04 25.3365 69.04C25.1698 69.04 24.9865 68.99 24.7865 68.89C24.5932 68.79 24.4165 68.66 24.2565 68.5C24.0965 68.3333 23.9865 68.1567 23.9265 67.97C23.9198 67.9567 23.8998 67.9033 23.8665 67.81C23.8398 67.7167 23.8265 67.5767 23.8265 67.39L23.8165 65.79C23.8165 65.6967 23.7932 65.55 23.7465 65.35C23.7065 65.2167 23.6865 65.1167 23.6865 65.05C23.6865 64.9367 23.7232 64.8433 23.7965 64.77C23.8765 64.6967 23.9798 64.66 24.1065 64.66ZM30.6155 68.6C30.6155 68.7133 30.5721 68.8133 30.4855 68.9C30.3988 68.9867 30.2921 69.03 30.1655 69.03C29.9655 69.03 29.8188 68.9933 29.7255 68.92C29.6321 68.84 29.5855 68.6967 29.5855 68.49C29.5855 68.2433 29.5788 67.92 29.5655 67.52C29.5521 67.1867 29.5455 66.9067 29.5455 66.68C29.5455 66.5733 29.5521 66.4333 29.5655 66.26C29.5788 66.1 29.5855 65.98 29.5855 65.9C29.5655 65.7733 29.5155 65.67 29.4355 65.59C29.3555 65.5033 29.2521 65.46 29.1255 65.46C29.0655 65.46 29.0155 65.4333 28.9755 65.38C28.9355 65.32 28.9155 65.26 28.9155 65.2C28.9155 65.0467 28.9755 64.93 29.0955 64.85C29.2221 64.77 29.3721 64.73 29.5455 64.73C29.9055 64.73 30.1555 64.9433 30.2955 65.37C30.4688 65.17 30.6655 65.01 30.8855 64.89C31.1121 64.7633 31.3288 64.7 31.5355 64.7C31.7821 64.7 32.0055 64.7667 32.2055 64.9C32.4121 65.0333 32.5155 65.2133 32.5155 65.44C32.5155 65.5667 32.4588 65.6967 32.3455 65.83C32.2388 65.9633 32.1288 66.03 32.0155 66.03C31.9555 66.03 31.9021 66.0167 31.8555 65.99C31.8155 65.9567 31.7655 65.91 31.7055 65.85C31.6388 65.7833 31.5821 65.7367 31.5355 65.71C31.4888 65.6767 31.4355 65.66 31.3755 65.66C31.2688 65.66 31.1688 65.6767 31.0755 65.71C30.9821 65.7433 30.9188 65.7833 30.8855 65.83C30.7788 65.9967 30.6988 66.1467 30.6455 66.28C30.5988 66.4133 30.5755 66.5567 30.5755 66.71C30.5755 66.8233 30.5721 66.9133 30.5655 66.98L30.5555 67.55C30.5555 67.6367 30.5588 67.7333 30.5655 67.84C30.5721 67.9467 30.5788 68.0267 30.5855 68.08C30.6055 68.26 30.6155 68.4333 30.6155 68.6ZM34.9362 63.17C34.9362 62.8833 35.1462 62.74 35.5662 62.74C35.7462 62.74 36.0895 62.7467 36.5962 62.76C37.1562 62.7867 37.5795 62.8 37.8662 62.8C38.0995 62.8 38.3828 62.7867 38.7162 62.76C38.9428 62.7467 39.0862 62.74 39.1462 62.74C39.5128 62.7533 39.8228 62.82 40.0762 62.94C40.1495 62.9733 40.2095 63.0133 40.2562 63.06C40.3028 63.1067 40.3262 63.1833 40.3262 63.29C40.3262 63.4367 40.2795 63.5633 40.1862 63.67C40.0928 63.77 39.9795 63.82 39.8462 63.82C39.6995 63.82 39.4862 63.8 39.2062 63.76C38.9595 63.7133 38.7428 63.69 38.5562 63.69C38.3762 63.69 38.2395 63.6933 38.1462 63.7C38.1262 63.92 38.1162 64.4467 38.1162 65.28C38.1162 66.2733 38.1462 67.28 38.2062 68.3L38.2262 68.59C38.2262 68.8633 38.0695 69 37.7562 69C37.5095 69 37.3428 68.9433 37.2562 68.83C37.1695 68.71 37.1262 68.53 37.1262 68.29C37.1262 67.8167 37.1128 67.2267 37.0862 66.52C37.0595 65.9333 37.0462 65.5167 37.0462 65.27C37.0462 65.1033 37.0662 64.5933 37.1062 63.74L35.9362 63.75C35.5628 63.75 35.3028 63.7167 35.1562 63.65C35.0095 63.5767 34.9362 63.4167 34.9362 63.17ZM41.0016 65.49C40.8283 65.37 40.7416 65.2433 40.7416 65.11C40.7416 65.0167 40.7816 64.93 40.8616 64.85C40.9416 64.77 41.0616 64.73 41.2216 64.73C41.4083 64.73 41.575 64.78 41.7216 64.88C41.875 64.9733 41.9816 65.11 42.0416 65.29C42.195 65.11 42.3683 64.9667 42.5616 64.86C42.7616 64.7533 42.965 64.7 43.1716 64.7C43.4183 64.7 43.6416 64.7667 43.8416 64.9C44.0416 65.0333 44.1416 65.2133 44.1416 65.44C44.1416 65.5667 44.085 65.6967 43.9716 65.83C43.865 65.9633 43.755 66.03 43.6416 66.03C43.5816 66.03 43.5283 66.0167 43.4816 65.99C43.4416 65.9567 43.3916 65.91 43.3316 65.85C43.265 65.7833 43.2083 65.7367 43.1616 65.71C43.115 65.6767 43.0616 65.66 43.0016 65.66C42.895 65.66 42.795 65.6767 42.7016 65.71C42.6083 65.7433 42.545 65.7833 42.5116 65.83C42.405 65.9967 42.325 66.1467 42.2716 66.28C42.225 66.4133 42.2016 66.5567 42.2016 66.71C42.2016 66.8233 42.1983 66.9133 42.1916 66.98L42.1816 67.55C42.1816 67.6367 42.185 67.7333 42.1916 67.84C42.1983 67.9467 42.205 68.0267 42.2116 68.08C42.2316 68.26 42.2416 68.4333 42.2416 68.6C42.2416 68.7133 42.1983 68.8133 42.1116 68.9C42.025 68.9867 41.9183 69.03 41.7916 69.03C41.5916 69.03 41.445 68.9933 41.3516 68.92C41.2583 68.84 41.2116 68.6967 41.2116 68.49L41.2016 67.85C41.195 67.7233 41.1916 67.5433 41.1916 67.31L41.2016 66.65C41.215 66.33 41.2216 66.07 41.2216 65.87C41.2216 65.7967 41.205 65.73 41.1716 65.67C41.145 65.61 41.0883 65.55 41.0016 65.49ZM44.6212 65.63C44.5678 65.63 44.5212 65.61 44.4812 65.57C44.4412 65.5233 44.4212 65.47 44.4212 65.41C44.4212 65.2167 44.4845 65.07 44.6112 64.97C44.7378 64.8633 44.8945 64.81 45.0812 64.81C45.3412 64.81 45.5645 64.88 45.7512 65.02C45.9445 65.1533 46.0412 65.3467 46.0412 65.6C46.0412 65.6667 46.0278 65.92 46.0012 66.36C45.9745 66.8667 45.9612 67.2033 45.9612 67.37C45.9612 67.6033 46.0045 67.7933 46.0912 67.94C46.1845 68.08 46.3278 68.15 46.5212 68.15C46.8945 68.15 47.1812 67.9433 47.3812 67.53C47.5878 67.11 47.7245 66.5967 47.7912 65.99C47.8178 65.7233 47.8578 65.4433 47.9112 65.15C47.9378 64.99 47.9745 64.8733 48.0212 64.8C48.0678 64.7267 48.1578 64.69 48.2912 64.69C48.3778 64.69 48.4778 64.71 48.5912 64.75C48.7112 64.79 48.7878 64.8433 48.8212 64.91C48.8612 65.01 48.8812 65.12 48.8812 65.24C48.8812 65.4067 48.8578 65.6233 48.8112 65.89C48.7578 66.1567 48.7212 66.4467 48.7012 66.76C48.6878 67.04 48.7312 67.3333 48.8312 67.64C48.9312 67.9467 49.0745 68.1467 49.2612 68.24C49.4745 68.3467 49.5812 68.4433 49.5812 68.53C49.5812 68.67 49.5312 68.78 49.4312 68.86C49.3312 68.94 49.2345 68.98 49.1412 68.98C48.8945 68.98 48.6712 68.89 48.4712 68.71C48.2778 68.53 48.1378 68.3067 48.0512 68.04C47.9112 68.2533 47.7745 68.43 47.6412 68.57C47.5145 68.7033 47.3512 68.8167 47.1512 68.91C46.9512 68.9967 46.7045 69.04 46.4112 69.04C46.0645 69.04 45.7478 68.9167 45.4612 68.67C45.1812 68.4233 45.0412 68 45.0412 67.4C45.0412 67.2333 45.0445 67.0567 45.0512 66.87C45.0645 66.6833 45.0712 66.55 45.0712 66.47C45.0912 66.23 45.1012 66.01 45.1012 65.81C45.1012 65.75 45.0778 65.7 45.0312 65.66C44.9912 65.62 44.9445 65.6 44.8912 65.6C44.8512 65.6 44.8045 65.6067 44.7512 65.62C44.7045 65.6267 44.6612 65.63 44.6212 65.63ZM53.1278 66.71C53.3945 66.8633 53.5811 67.0167 53.6878 67.17C53.7945 67.3167 53.8478 67.51 53.8478 67.75C53.8478 67.99 53.7778 68.2033 53.6378 68.39C53.4978 68.57 53.3178 68.71 53.0978 68.81C52.9378 68.8833 52.7378 68.94 52.4978 68.98C52.2645 69.02 52.0811 69.04 51.9478 69.04C51.7145 69.04 51.4611 68.9967 51.1878 68.91C50.9145 68.8233 50.6811 68.7 50.4878 68.54C50.3011 68.38 50.2078 68.1933 50.2078 67.98C50.2078 67.8467 50.2511 67.7433 50.3378 67.67C50.4245 67.59 50.5378 67.55 50.6778 67.55C50.7911 67.55 50.9111 67.63 51.0378 67.79C51.1645 67.93 51.3111 68.0367 51.4778 68.11C51.6511 68.1833 51.8211 68.22 51.9878 68.22C52.6211 68.22 52.9378 68.0767 52.9378 67.79C52.9378 67.73 52.9178 67.6733 52.8778 67.62C52.8378 67.56 52.8011 67.52 52.7678 67.5C52.7078 67.4533 52.6245 67.4133 52.5178 67.38C52.4111 67.3467 52.3045 67.32 52.1978 67.3C52.0911 67.2733 52.0111 67.2533 51.9578 67.24C51.9045 67.2267 51.7911 67.2033 51.6178 67.17C51.4511 67.1367 51.2911 67.08 51.1378 67C50.8845 66.88 50.6778 66.7333 50.5178 66.56C50.3645 66.3867 50.2878 66.1633 50.2878 65.89C50.2878 65.7367 50.3245 65.5833 50.3978 65.43C50.4778 65.27 50.5845 65.15 50.7178 65.07C50.9178 64.9433 51.1378 64.8467 51.3778 64.78C51.6178 64.7133 51.8411 64.68 52.0478 64.68C52.2145 64.68 52.4011 64.6967 52.6078 64.73C52.8211 64.7633 52.9745 64.81 53.0678 64.87C53.2411 64.9633 53.3678 65.06 53.4478 65.16C53.5278 65.26 53.5678 65.3867 53.5678 65.54C53.5678 65.6133 53.5511 65.6867 53.5178 65.76C53.4845 65.8267 53.4445 65.8733 53.3978 65.9C53.2911 65.94 53.1978 65.96 53.1178 65.96C53.0578 65.96 53.0078 65.95 52.9678 65.93C52.9278 65.9033 52.8911 65.8767 52.8578 65.85C52.8311 65.8233 52.8145 65.8067 52.8078 65.8C52.7211 65.7067 52.6245 65.6333 52.5178 65.58C52.4111 65.5267 52.2545 65.5 52.0478 65.5C51.9145 65.5 51.7845 65.52 51.6578 65.56C51.5378 65.5933 51.4445 65.6367 51.3778 65.69C51.3245 65.73 51.2878 65.7667 51.2678 65.8C51.2478 65.8267 51.2378 65.8633 51.2378 65.91C51.2378 66.0967 51.4245 66.2333 51.7978 66.32C52.1778 66.4067 52.3778 66.4533 52.3978 66.46C52.4378 66.4733 52.5478 66.5067 52.7278 66.56C52.9145 66.6133 53.0478 66.6633 53.1278 66.71ZM54.7898 65.54C54.6964 65.5267 54.6198 65.4867 54.5598 65.42C54.5064 65.3533 54.4798 65.2733 54.4798 65.18C54.4798 65.1333 54.4898 65.0833 54.5098 65.03C54.5364 64.9767 54.5731 64.93 54.6198 64.89C54.7064 64.8033 54.9398 64.76 55.3198 64.76C55.3731 64.5 55.3998 64.2367 55.3998 63.97C55.3998 63.87 55.3964 63.7833 55.3898 63.71C55.3831 63.6367 55.3798 63.58 55.3798 63.54C55.3798 63.3933 55.4331 63.2833 55.5398 63.21C55.6531 63.1367 55.7798 63.1 55.9198 63.1C56.0931 63.1 56.2098 63.1433 56.2698 63.23C56.3364 63.3167 56.3698 63.4767 56.3698 63.71C56.3698 64.0567 56.3398 64.3967 56.2798 64.73C56.3864 64.73 56.5331 64.7233 56.7198 64.71C56.9731 64.6967 57.1564 64.69 57.2698 64.69C57.3831 64.69 57.4798 64.72 57.5598 64.78C57.6464 64.8333 57.6898 64.91 57.6898 65.01C57.6898 65.27 57.5731 65.4233 57.3398 65.47C57.0931 65.53 56.7098 65.5667 56.1898 65.58C56.1698 65.84 56.1598 66.1233 56.1598 66.43C56.1598 66.91 56.1898 67.3033 56.2498 67.61C56.2898 67.8233 56.3564 67.98 56.4498 68.08C56.5498 68.1733 56.6964 68.22 56.8898 68.22C57.0031 68.22 57.1198 68.19 57.2398 68.13C57.3198 68.0833 57.3931 68.06 57.4598 68.06C57.5531 68.06 57.6198 68.09 57.6598 68.15C57.7064 68.21 57.7298 68.29 57.7298 68.39C57.7298 68.5767 57.6298 68.7333 57.4298 68.86C57.2298 68.98 56.9731 69.04 56.6598 69.04C56.4664 69.04 56.2698 68.9933 56.0698 68.9C55.8764 68.8067 55.7131 68.69 55.5798 68.55C55.5598 68.53 55.5231 68.4533 55.4698 68.32C55.4164 68.1867 55.3698 68.0433 55.3298 67.89C55.2631 67.5767 55.2298 67.1367 55.2298 66.57C55.2298 66.3233 55.2431 65.9933 55.2698 65.58L54.7898 65.54ZM58.4695 66.88C58.4695 66.6267 58.5162 66.3733 58.6095 66.12C58.7029 65.86 58.8262 65.6233 58.9795 65.41C59.1329 65.1967 59.3762 65.0233 59.7095 64.89C60.0429 64.75 60.3395 64.68 60.5995 64.68C60.8662 64.68 61.1362 64.7167 61.4095 64.79C61.6895 64.8633 61.8829 64.9767 61.9895 65.13C62.2362 65.4767 62.3595 65.8167 62.3595 66.15C62.3595 66.33 62.3195 66.4833 62.2395 66.61C62.1662 66.7367 62.0595 66.8733 61.9195 67.02C61.8062 67.14 61.6262 67.22 61.3795 67.26C61.1395 67.3 60.8995 67.32 60.6595 67.32C60.5062 67.32 60.3195 67.3067 60.0995 67.28C59.8795 67.2467 59.6662 67.2067 59.4595 67.16C59.4729 67.2933 59.5062 67.4233 59.5595 67.55C59.6129 67.6767 59.6762 67.7733 59.7495 67.84C59.8829 67.9667 60.0195 68.0467 60.1595 68.08C60.3062 68.1133 60.4929 68.13 60.7195 68.13C60.9595 68.13 61.1829 68.09 61.3895 68.01C61.5562 67.95 61.6929 67.92 61.7995 67.92C61.9262 67.92 62.0229 67.96 62.0895 68.04C62.1562 68.1133 62.1895 68.21 62.1895 68.33C62.1895 68.4967 62.0929 68.6333 61.8995 68.74C61.7062 68.8467 61.4829 68.9267 61.2295 68.98C60.9829 69.0267 60.7829 69.05 60.6295 69.05C60.3162 69.05 60.0129 68.9933 59.7195 68.88C59.4262 68.7667 59.1829 68.6067 58.9895 68.4C58.8295 68.2133 58.7029 67.99 58.6095 67.73C58.5162 67.4633 58.4695 67.18 58.4695 66.88ZM60.6495 65.53C60.5029 65.53 60.3562 65.56 60.2095 65.62C60.0629 65.6733 59.9429 65.75 59.8495 65.85C59.7295 65.9767 59.6462 66.08 59.5995 66.16C59.5595 66.2333 59.5329 66.3367 59.5195 66.47C59.6862 66.5233 60.0329 66.55 60.5595 66.55C60.8462 66.55 61.0662 66.5067 61.2195 66.42C61.3795 66.3333 61.4595 66.22 61.4595 66.08C61.4595 65.94 61.3729 65.8133 61.1995 65.7C61.0262 65.5867 60.8429 65.53 60.6495 65.53ZM67.4552 68.95C67.3152 68.95 67.1818 68.91 67.0552 68.83C66.9352 68.7433 66.8285 68.6533 66.7352 68.56C66.6418 68.46 66.5785 68.3933 66.5452 68.36C66.4052 68.56 66.2018 68.7233 65.9352 68.85C65.6685 68.9767 65.4118 69.04 65.1652 69.04C64.7852 69.04 64.4485 68.96 64.1552 68.8C63.8618 68.64 63.6352 68.4233 63.4752 68.15C63.3152 67.87 63.2352 67.56 63.2352 67.22C63.2352 66.9 63.2718 66.5933 63.3452 66.3C63.4252 66 63.5318 65.75 63.6652 65.55C63.8452 65.2967 64.0852 65.0967 64.3852 64.95C64.6918 64.8033 64.9952 64.73 65.2952 64.73C65.4752 64.73 65.6452 64.7633 65.8052 64.83C65.9652 64.8967 66.1052 64.98 66.2252 65.08C66.2252 64.64 66.2218 64.3633 66.2152 64.25V64.03C66.2152 63.4033 66.2552 62.9467 66.3352 62.66C66.4085 62.38 66.5885 62.24 66.8752 62.24C67.0285 62.24 67.1418 62.2733 67.2152 62.34C67.2885 62.4067 67.3252 62.5333 67.3252 62.72C67.3252 62.7867 67.3085 62.97 67.2752 63.27C67.2018 64.0167 67.1652 64.7633 67.1652 65.51C67.1652 66.1367 67.1752 66.6033 67.1952 66.91C67.2218 67.21 67.2718 67.45 67.3452 67.63C67.4252 67.81 67.5485 67.97 67.7152 68.11C67.8152 68.19 67.8852 68.2567 67.9252 68.31C67.9718 68.3633 67.9952 68.4333 67.9952 68.52C67.9952 68.6267 67.9418 68.7267 67.8352 68.82C67.7285 68.9067 67.6018 68.95 67.4552 68.95ZM65.1352 68.23C65.4885 68.23 65.7485 68.12 65.9152 67.9C66.0885 67.6733 66.1752 67.3867 66.1752 67.04L66.1652 66.48C66.1585 66.3733 66.1552 66.23 66.1552 66.05C65.9085 65.7567 65.6418 65.61 65.3552 65.61C65.1618 65.61 64.9785 65.66 64.8052 65.76C64.6385 65.86 64.5018 66.0067 64.3952 66.2C64.2818 66.42 64.2252 66.7533 64.2252 67.2C64.2252 67.5067 64.3152 67.7567 64.4952 67.95C64.6752 68.1367 64.8885 68.23 65.1352 68.23ZM73.5728 66.74C73.3128 66.74 73.0928 66.7333 72.9128 66.72C72.7395 66.7 72.5095 66.67 72.2228 66.63L72.2128 67.68C72.2061 67.86 72.2028 68.1167 72.2028 68.45C72.2028 68.6233 72.1528 68.76 72.0528 68.86C71.9595 68.9533 71.8528 69 71.7328 69C71.5128 69 71.3495 68.9733 71.2428 68.92C71.1361 68.86 71.0828 68.7567 71.0828 68.61C71.0828 68.4167 71.0995 68.1433 71.1328 67.79C71.2061 67.03 71.2428 66.25 71.2428 65.45C71.2428 64.7033 71.2195 64 71.1728 63.34C71.1795 63.2467 71.2261 63.14 71.3128 63.02C71.4061 62.9 71.5228 62.8333 71.6628 62.82C71.8161 62.82 72.0595 62.7933 72.3928 62.74C72.7395 62.6867 73.0028 62.66 73.1828 62.66C73.7295 62.66 74.1528 62.7133 74.4528 62.82C74.7595 62.9267 75.0661 63.1033 75.3728 63.35C75.7061 63.87 75.8728 64.2367 75.8728 64.45C75.8728 64.8967 75.7828 65.2933 75.6028 65.64C75.4228 65.9867 75.1595 66.2567 74.8128 66.45C74.4661 66.6433 74.0528 66.74 73.5728 66.74ZM73.3428 63.51C73.1295 63.51 72.9428 63.5233 72.7828 63.55C72.6295 63.57 72.4428 63.6067 72.2228 63.66C72.2495 64.2733 72.2628 64.72 72.2628 65C72.2628 65.2867 72.2528 65.5267 72.2328 65.72C72.5195 65.78 72.7461 65.82 72.9128 65.84C73.0795 65.8533 73.2661 65.86 73.4728 65.86C73.9661 65.86 74.3128 65.7333 74.5128 65.48C74.7195 65.22 74.8228 64.92 74.8228 64.58C74.8228 64.48 74.7928 64.3567 74.7328 64.21C74.6728 64.0633 74.6195 63.9667 74.5728 63.92C74.3928 63.76 74.2161 63.6533 74.0428 63.6C73.8761 63.54 73.6428 63.51 73.3428 63.51ZM80.4257 69.04C80.199 69.04 80.0257 69.0067 79.9057 68.94C79.7857 68.8667 79.6557 68.7333 79.5157 68.54C79.3424 68.6933 79.0824 68.8167 78.7357 68.91C78.3957 69.0033 78.1024 69.05 77.8557 69.05C77.449 69.05 77.119 68.94 76.8657 68.72C76.619 68.4933 76.4957 68.1633 76.4957 67.73C76.4957 67.5433 76.5457 67.3733 76.6457 67.22C76.7524 67.06 76.889 66.92 77.0557 66.8C77.2424 66.6733 77.4624 66.5733 77.7157 66.5C77.9757 66.4267 78.2124 66.39 78.4257 66.39C78.7857 66.39 79.1057 66.4233 79.3857 66.49V66.48C79.3857 66.12 79.2957 65.8733 79.1157 65.74C78.9424 65.6 78.6624 65.53 78.2757 65.53C78.029 65.53 77.8157 65.64 77.6357 65.86C77.569 65.9467 77.429 65.99 77.2157 65.99C77.109 65.99 77.029 65.9467 76.9757 65.86C76.929 65.7667 76.9057 65.6733 76.9057 65.58C76.9057 65.3867 76.9857 65.22 77.1457 65.08C77.3124 64.94 77.5124 64.8367 77.7457 64.77C77.979 64.6967 78.1957 64.66 78.3957 64.66C78.589 64.66 78.819 64.7 79.0857 64.78C79.3524 64.86 79.569 64.9667 79.7357 65.1C79.9357 65.2733 80.089 65.4767 80.1957 65.71C80.309 65.9367 80.3657 66.1867 80.3657 66.46C80.3657 66.5467 80.359 66.6767 80.3457 66.85C80.3324 67.05 80.3257 67.2133 80.3257 67.34C80.3257 67.4 80.319 67.4767 80.3057 67.57C80.2924 67.69 80.2857 67.79 80.2857 67.87C80.2857 67.9567 80.3124 68.04 80.3657 68.12C80.419 68.2 80.4924 68.2667 80.5857 68.32C80.6724 68.3667 80.729 68.4167 80.7557 68.47C80.7824 68.5233 80.7957 68.5833 80.7957 68.65C80.7957 68.7167 80.7524 68.8 80.6657 68.9C80.5857 68.9933 80.5057 69.04 80.4257 69.04ZM78.4257 67.13C78.1657 67.13 77.9357 67.18 77.7357 67.28C77.5357 67.38 77.4357 67.5567 77.4357 67.81C77.4357 67.9367 77.479 68.0433 77.5657 68.13C77.659 68.2167 77.759 68.26 77.8657 68.26C78.1524 68.26 78.3924 68.23 78.5857 68.17C78.779 68.11 79.0124 68 79.2857 67.84C79.319 67.7333 79.339 67.5833 79.3457 67.39C79.3457 67.3167 79.349 67.26 79.3557 67.22C78.9957 67.16 78.6857 67.13 78.4257 67.13ZM82.9376 68.6C82.9242 68.7133 82.8776 68.8133 82.7976 68.9C82.7176 68.9867 82.6142 69.03 82.4876 69.03C82.2876 69.03 82.1409 68.9933 82.0476 68.92C81.9542 68.84 81.9076 68.6967 81.9076 68.49C81.9076 68.21 81.9242 67.9033 81.9576 67.57C81.9842 67.1833 81.9976 66.8867 81.9976 66.68C81.9976 66.5733 81.9909 66.44 81.9776 66.28C81.9642 66.1333 81.9576 66.0233 81.9576 65.95C81.9376 65.8367 81.8909 65.7467 81.8176 65.68C81.7509 65.6133 81.6442 65.5567 81.4976 65.51C81.4376 65.4833 81.3876 65.44 81.3476 65.38C81.3076 65.3133 81.2876 65.2533 81.2876 65.2C81.2876 65.0467 81.3476 64.93 81.4676 64.85C81.5876 64.77 81.7342 64.73 81.9076 64.73C82.1009 64.73 82.2676 64.7967 82.4076 64.93C82.5476 65.0633 82.6542 65.23 82.7276 65.43C82.8809 65.21 83.0676 65.0333 83.2876 64.9C83.5142 64.7667 83.7342 64.7 83.9476 64.7C84.2209 64.7 84.4509 64.7467 84.6376 64.84C84.8309 64.9267 84.9276 65.08 84.9276 65.3C84.9276 65.4267 84.8709 65.56 84.7576 65.7C84.6509 65.8333 84.5409 65.9 84.4276 65.9C84.3409 65.9 84.2376 65.86 84.1176 65.78C84.0709 65.7467 84.0176 65.72 83.9576 65.7C83.9042 65.6733 83.8476 65.66 83.7876 65.66C83.6809 65.66 83.5809 65.6767 83.4876 65.71C83.3942 65.7433 83.3309 65.7833 83.2976 65.83C83.1909 65.9967 83.1109 66.1467 83.0576 66.28C83.0109 66.4133 82.9876 66.5567 82.9876 66.71C82.9876 66.8233 82.9842 66.9133 82.9776 66.98L82.9676 67.55L82.9776 67.93C82.9776 68.21 82.9642 68.4333 82.9376 68.6ZM85.5222 65.54C85.4289 65.5267 85.3522 65.4867 85.2922 65.42C85.2389 65.3533 85.2122 65.2733 85.2122 65.18C85.2122 65.1333 85.2222 65.0833 85.2422 65.03C85.2689 64.9767 85.3055 64.93 85.3522 64.89C85.4389 64.8033 85.6722 64.76 86.0522 64.76C86.1055 64.5 86.1322 64.2367 86.1322 63.97C86.1322 63.87 86.1289 63.7833 86.1222 63.71C86.1155 63.6367 86.1122 63.58 86.1122 63.54C86.1122 63.3933 86.1655 63.2833 86.2722 63.21C86.3855 63.1367 86.5122 63.1 86.6522 63.1C86.8255 63.1 86.9422 63.1433 87.0022 63.23C87.0689 63.3167 87.1022 63.4767 87.1022 63.71C87.1022 64.0567 87.0722 64.3967 87.0122 64.73C87.1189 64.73 87.2655 64.7233 87.4522 64.71C87.7055 64.6967 87.8889 64.69 88.0022 64.69C88.1155 64.69 88.2122 64.72 88.2922 64.78C88.3789 64.8333 88.4222 64.91 88.4222 65.01C88.4222 65.27 88.3055 65.4233 88.0722 65.47C87.8255 65.53 87.4422 65.5667 86.9222 65.58C86.9022 65.84 86.8922 66.1233 86.8922 66.43C86.8922 66.91 86.9222 67.3033 86.9822 67.61C87.0222 67.8233 87.0889 67.98 87.1822 68.08C87.2822 68.1733 87.4289 68.22 87.6222 68.22C87.7355 68.22 87.8522 68.19 87.9722 68.13C88.0522 68.0833 88.1255 68.06 88.1922 68.06C88.2855 68.06 88.3522 68.09 88.3922 68.15C88.4389 68.21 88.4622 68.29 88.4622 68.39C88.4622 68.5767 88.3622 68.7333 88.1622 68.86C87.9622 68.98 87.7055 69.04 87.3922 69.04C87.1989 69.04 87.0022 68.9933 86.8022 68.9C86.6089 68.8067 86.4455 68.69 86.3122 68.55C86.2922 68.53 86.2555 68.4533 86.2022 68.32C86.1489 68.1867 86.1022 68.0433 86.0622 67.89C85.9955 67.5767 85.9622 67.1367 85.9622 66.57C85.9622 66.3233 85.9755 65.9933 86.0022 65.58L85.5222 65.54ZM89.202 65.48C89.1486 65.44 89.1053 65.4 89.072 65.36C89.0386 65.3133 89.022 65.2333 89.022 65.12C89.022 64.9933 89.0653 64.8967 89.152 64.83C89.2453 64.7567 89.352 64.72 89.472 64.72C89.7053 64.72 89.9053 64.78 90.072 64.9C90.2453 65.02 90.372 65.1867 90.452 65.4C90.5986 65.1267 90.7853 64.94 91.012 64.84C91.2386 64.7333 91.552 64.68 91.952 64.68C92.112 64.68 92.2753 64.73 92.442 64.83C92.6153 64.9233 92.772 65.04 92.912 65.18C93.0253 65.3267 93.122 65.51 93.202 65.73C93.282 65.9433 93.322 66.1367 93.322 66.31C93.322 66.41 93.3153 66.5733 93.302 66.8C93.2886 67.04 93.282 67.23 93.282 67.37C93.282 67.8367 93.372 68.1233 93.552 68.23C93.5786 68.2433 93.6286 68.26 93.702 68.28C93.7753 68.3 93.8286 68.32 93.862 68.34C93.902 68.36 93.922 68.39 93.922 68.43C93.9286 68.59 93.8686 68.7233 93.742 68.83C93.622 68.93 93.4753 68.98 93.302 68.98C93.042 68.98 92.8386 68.91 92.692 68.77C92.5453 68.63 92.442 68.4167 92.382 68.13C92.3486 68.0233 92.332 67.8667 92.332 67.66C92.332 67.5467 92.3386 67.3633 92.352 67.11C92.372 66.91 92.382 66.6967 92.382 66.47C92.382 66.2367 92.3153 66.0333 92.182 65.86C92.0486 65.68 91.8653 65.59 91.632 65.59C91.492 65.59 91.3453 65.6333 91.192 65.72C91.0386 65.8 90.932 65.9 90.872 66.02C90.772 66.2267 90.7053 66.4367 90.672 66.65C90.592 67.0633 90.552 67.46 90.552 67.84C90.552 67.9333 90.5586 68.1133 90.572 68.38C90.572 68.4 90.572 68.45 90.572 68.53C90.572 68.6033 90.562 68.6733 90.542 68.74C90.5286 68.8067 90.502 68.8667 90.462 68.92C90.4353 68.9467 90.3853 68.9733 90.312 69C90.2386 69.0267 90.1753 69.04 90.122 69.04C90.0286 69.04 89.912 69 89.772 68.92C89.632 68.84 89.5486 68.75 89.522 68.65L89.512 68.51C89.512 68.4567 89.5186 68.3767 89.532 68.27C89.612 67.8033 89.652 67.3967 89.652 67.05C89.652 66.8967 89.6486 66.78 89.642 66.7L89.632 66.24C89.632 66.1 89.592 65.9667 89.512 65.84C89.432 65.7067 89.3286 65.5867 89.202 65.48ZM94.534 66.74C94.534 66.5 94.5773 66.2767 94.664 66.07C94.7507 65.8567 94.8773 65.6367 95.044 65.41C95.2107 65.1833 95.4407 65.0067 95.734 64.88C96.0273 64.7467 96.3473 64.68 96.694 64.68C96.9607 64.68 97.2173 64.7367 97.464 64.85C97.7173 64.9567 97.944 65.09 98.144 65.25C98.1707 65.2967 98.2173 65.3833 98.284 65.51C98.3507 65.63 98.3973 65.74 98.424 65.84C98.4573 65.94 98.474 66.0433 98.474 66.15C98.474 66.5967 98.3107 66.8967 97.984 67.05C97.6573 67.1967 97.244 67.27 96.744 67.27C96.244 67.27 95.8373 67.2367 95.524 67.17C95.5373 67.2967 95.5707 67.4233 95.624 67.55C95.6773 67.6767 95.7407 67.7733 95.814 67.84C95.9473 67.9667 96.0773 68.05 96.204 68.09C96.3373 68.1233 96.514 68.14 96.734 68.14C97.0673 68.14 97.3273 68.0767 97.514 67.95C97.6873 67.8367 97.8207 67.78 97.914 67.78C98.0407 67.78 98.1373 67.82 98.204 67.9C98.2707 67.9733 98.304 68.07 98.304 68.19C98.304 68.4433 98.1407 68.65 97.814 68.81C97.494 68.97 97.1307 69.05 96.724 69.05C96.404 69.05 96.0873 68.9933 95.774 68.88C95.4607 68.7667 95.2107 68.6067 95.024 68.4C94.8973 68.1867 94.784 67.9267 94.684 67.62C94.584 67.3133 94.534 67.02 94.534 66.74ZM96.734 65.5C96.5873 65.5 96.434 65.5267 96.274 65.58C96.1207 65.6267 96.0007 65.7 95.914 65.8C95.8073 65.9133 95.7273 66.0167 95.674 66.11C95.6273 66.2033 95.5973 66.32 95.584 66.46C95.6573 66.46 95.7273 66.4633 95.794 66.47C95.8607 66.4767 95.924 66.4833 95.984 66.49C96.2773 66.5167 96.4973 66.53 96.644 66.53C96.9373 66.53 97.1607 66.4867 97.314 66.4C97.474 66.3133 97.554 66.1967 97.554 66.05C97.554 65.91 97.464 65.7833 97.284 65.67C97.1107 65.5567 96.9273 65.5 96.734 65.5ZM100.828 68.6C100.815 68.7133 100.768 68.8133 100.688 68.9C100.608 68.9867 100.505 69.03 100.378 69.03C100.178 69.03 100.032 68.9933 99.9382 68.92C99.8449 68.84 99.7982 68.6967 99.7982 68.49C99.7982 68.21 99.8149 67.9033 99.8482 67.57C99.8749 67.1833 99.8882 66.8867 99.8882 66.68C99.8882 66.5733 99.8815 66.44 99.8682 66.28C99.8549 66.1333 99.8482 66.0233 99.8482 65.95C99.8282 65.8367 99.7815 65.7467 99.7082 65.68C99.6415 65.6133 99.5349 65.5567 99.3882 65.51C99.3282 65.4833 99.2782 65.44 99.2382 65.38C99.1982 65.3133 99.1782 65.2533 99.1782 65.2C99.1782 65.0467 99.2382 64.93 99.3582 64.85C99.4782 64.77 99.6249 64.73 99.7982 64.73C99.9915 64.73 100.158 64.7967 100.298 64.93C100.438 65.0633 100.545 65.23 100.618 65.43C100.772 65.21 100.958 65.0333 101.178 64.9C101.405 64.7667 101.625 64.7 101.838 64.7C102.112 64.7 102.342 64.7467 102.528 64.84C102.722 64.9267 102.818 65.08 102.818 65.3C102.818 65.4267 102.762 65.56 102.648 65.7C102.542 65.8333 102.432 65.9 102.318 65.9C102.232 65.9 102.128 65.86 102.008 65.78C101.962 65.7467 101.908 65.72 101.848 65.7C101.795 65.6733 101.738 65.66 101.678 65.66C101.572 65.66 101.472 65.6767 101.378 65.71C101.285 65.7433 101.222 65.7833 101.188 65.83C101.082 65.9967 101.002 66.1467 100.948 66.28C100.902 66.4133 100.878 66.5567 100.878 66.71C100.878 66.8233 100.875 66.9133 100.868 66.98L100.858 67.55L100.868 67.93C100.868 68.21 100.855 68.4333 100.828 68.6ZM106.169 62.58C106.402 62.6 106.606 62.6633 106.779 62.77C106.952 62.87 107.039 63.0233 107.039 63.23C107.039 63.3833 106.966 63.5067 106.819 63.6C106.679 63.6867 106.509 63.73 106.309 63.73C106.116 63.73 105.982 63.68 105.909 63.58C105.836 63.48 105.799 63.3767 105.799 63.27C105.799 63.07 105.819 62.9033 105.859 62.77C105.906 62.6367 106.009 62.5733 106.169 62.58ZM106.969 67.01V67.3C106.969 67.56 106.976 67.8067 106.989 68.04C107.009 68.2667 107.032 68.4967 107.059 68.73C107.052 68.7967 107.002 68.8667 106.909 68.94C106.816 69.0067 106.732 69.04 106.659 69.04C106.532 69.04 106.402 69.0167 106.269 68.97C106.142 68.9167 106.066 68.8533 106.039 68.78C105.999 68.5667 105.979 68.3767 105.979 68.21C105.979 67.6633 105.962 67.05 105.929 66.37C105.902 65.77 105.889 65.35 105.889 65.11C105.889 64.99 105.949 64.8867 106.069 64.8C106.189 64.7133 106.316 64.67 106.449 64.67C106.642 64.67 106.776 64.7133 106.849 64.8C106.929 64.8867 106.969 65.0233 106.969 65.21V67.01ZM112.778 68.23C112.811 68.2433 112.864 68.26 112.938 68.28C113.011 68.3 113.064 68.32 113.098 68.34C113.131 68.36 113.148 68.39 113.148 68.43C113.154 68.59 113.094 68.7233 112.967 68.83C112.848 68.93 112.704 68.98 112.538 68.98C112.278 68.98 112.074 68.91 111.928 68.77C111.781 68.63 111.674 68.4167 111.608 68.13C111.581 68.0167 111.568 67.86 111.568 67.66C111.568 67.5467 111.574 67.3633 111.588 67.11C111.601 66.8433 111.608 66.63 111.608 66.47C111.608 66.2367 111.541 66.0333 111.408 65.86C111.281 65.68 111.101 65.59 110.868 65.59C110.728 65.59 110.581 65.6333 110.428 65.72C110.274 65.8 110.168 65.9 110.108 66.02C110.008 66.2133 109.938 66.4233 109.898 66.65C109.824 67.05 109.788 67.4667 109.788 67.9C109.788 68.1067 109.791 68.2667 109.798 68.38C109.798 68.4067 109.798 68.46 109.798 68.54C109.804 68.6133 109.798 68.6833 109.778 68.75C109.764 68.81 109.738 68.8667 109.698 68.92C109.664 68.9533 109.611 68.98 109.538 69C109.471 69.0267 109.408 69.04 109.348 69.04C109.254 69.04 109.138 69 108.998 68.92C108.858 68.84 108.778 68.75 108.758 68.65L108.748 68.48C108.748 68.42 108.754 68.35 108.768 68.27C108.848 67.8033 108.888 67.3967 108.888 67.05C108.888 66.8967 108.884 66.7767 108.878 66.69L108.868 66.22C108.868 66.06 108.828 65.9067 108.748 65.76C108.668 65.6067 108.574 65.53 108.468 65.53C108.434 65.53 108.388 65.5433 108.328 65.57C108.268 65.59 108.218 65.6 108.178 65.6C108.111 65.6 108.038 65.5667 107.958 65.5C107.884 65.4333 107.848 65.3633 107.848 65.29C107.848 65.15 107.894 65.0367 107.988 64.95C108.088 64.87 108.184 64.8067 108.278 64.76C108.378 64.7133 108.491 64.69 108.618 64.69C108.724 64.69 108.811 64.7 108.878 64.72C108.944 64.74 109.034 64.7833 109.148 64.85C109.208 64.8833 109.278 64.9567 109.358 65.07C109.438 65.1833 109.504 65.3433 109.558 65.55C109.731 65.23 109.944 65.0067 110.198 64.88C110.458 64.7467 110.788 64.68 111.188 64.68C111.341 64.68 111.504 64.73 111.678 64.83C111.858 64.93 112.011 65.0467 112.138 65.18C112.258 65.3267 112.358 65.51 112.438 65.73C112.518 65.9433 112.558 66.1367 112.558 66.31C112.558 66.41 112.551 66.5733 112.538 66.8C112.518 66.98 112.508 67.17 112.508 67.37C112.508 67.8367 112.598 68.1233 112.778 68.23ZM116.118 65.52C116.025 65.5067 115.948 65.47 115.888 65.41C115.835 65.3433 115.808 65.2633 115.808 65.17C115.808 65.05 115.855 64.95 115.948 64.87C115.968 64.85 116.001 64.8333 116.048 64.82C116.095 64.8 116.131 64.7833 116.158 64.77C116.305 64.7233 116.398 64.6867 116.438 64.66C116.591 64.5667 116.695 64.4133 116.748 64.2C116.801 63.9467 116.835 63.7733 116.848 63.68C116.861 63.5333 116.908 63.4233 116.988 63.35C117.075 63.27 117.181 63.23 117.308 63.23C117.475 63.23 117.591 63.2733 117.658 63.36C117.725 63.4467 117.758 63.6067 117.758 63.84C117.758 64.1467 117.685 64.4367 117.538 64.71C117.631 64.71 117.785 64.7033 117.998 64.69C118.318 64.6767 118.541 64.67 118.668 64.67C118.781 64.67 118.878 64.7 118.958 64.76C119.045 64.8133 119.088 64.8933 119.088 65C119.088 65.2533 118.971 65.4033 118.738 65.45C118.525 65.51 118.138 65.5467 117.578 65.56C117.531 66.2133 117.508 66.73 117.508 67.11C117.508 67.3433 117.518 67.51 117.538 67.61C117.578 67.8167 117.645 67.97 117.738 68.07C117.838 68.1633 117.985 68.21 118.178 68.21C118.271 68.21 118.411 68.1867 118.598 68.14C118.711 68.1067 118.801 68.09 118.868 68.09C118.955 68.09 119.021 68.12 119.068 68.18C119.115 68.24 119.138 68.32 119.138 68.42C119.138 68.6 119.021 68.75 118.788 68.87C118.555 68.9833 118.278 69.04 117.958 69.04C117.758 69.04 117.561 68.9933 117.368 68.9C117.175 68.8 117.011 68.68 116.878 68.54C116.851 68.5267 116.811 68.4533 116.758 68.32C116.711 68.1867 116.665 68.04 116.618 67.88C116.598 67.8 116.588 67.6067 116.588 67.3C116.588 67.0067 116.608 66.5 116.648 65.78L116.658 65.56C116.611 65.56 116.525 65.5567 116.398 65.55C116.271 65.5367 116.178 65.5267 116.118 65.52ZM121.068 62.66C121.068 62.8333 121.065 63.0367 121.058 63.27C121.051 63.4967 121.045 63.67 121.038 63.79C121.018 64.13 121.008 64.47 121.008 64.81C121.008 65.2567 121.018 65.6167 121.038 65.89C121.191 65.51 121.408 65.2233 121.688 65.03C121.968 64.83 122.288 64.73 122.648 64.73C122.895 64.73 123.125 64.84 123.338 65.06C123.551 65.28 123.688 65.5367 123.748 65.83C123.755 65.8633 123.758 65.9133 123.758 65.98C123.758 66.06 123.751 66.1867 123.738 66.36C123.718 66.5 123.708 66.64 123.708 66.78C123.708 67.14 123.721 67.42 123.748 67.62C123.775 67.8133 123.831 67.9733 123.918 68.1C124.005 68.22 124.141 68.3167 124.328 68.39C124.401 68.4167 124.451 68.4533 124.478 68.5C124.511 68.54 124.528 68.6033 124.528 68.69C124.528 68.81 124.465 68.9 124.338 68.96C124.218 69.02 124.101 69.05 123.988 69.05C123.755 69.05 123.545 68.9867 123.358 68.86C123.171 68.7333 123.031 68.5667 122.938 68.36C122.871 68.22 122.828 68.0533 122.808 67.86C122.788 67.6667 122.778 67.44 122.778 67.18L122.788 66.31C122.788 65.8367 122.635 65.6 122.328 65.6C122.108 65.6 121.895 65.78 121.688 66.14C121.481 66.5 121.315 66.9233 121.188 67.41C121.061 67.8967 120.998 68.2967 120.998 68.61C120.998 68.7567 120.951 68.8667 120.858 68.94C120.771 69.0067 120.681 69.04 120.588 69.04C120.441 69.04 120.308 68.9967 120.188 68.91C120.068 68.8167 120.008 68.7133 120.008 68.6C120.055 68.1 120.078 67.2633 120.078 66.09C120.078 65.8767 120.061 65.0867 120.028 63.72L119.998 62.8C119.998 62.6533 120.065 62.5267 120.198 62.42C120.331 62.3067 120.481 62.25 120.648 62.25C120.795 62.25 120.901 62.2833 120.968 62.35C121.035 62.4167 121.068 62.52 121.068 62.66ZM125.08 66.71C125.08 66.3033 125.17 65.9667 125.35 65.7C125.53 65.4267 125.78 65.17 126.1 64.93C126.194 64.8633 126.35 64.8067 126.57 64.76C126.79 64.7067 126.984 64.68 127.15 64.68C127.35 64.68 127.56 64.7233 127.78 64.81C128.007 64.89 128.19 64.9833 128.33 65.09C128.577 65.27 128.747 65.48 128.84 65.72C128.934 65.9533 128.98 66.2333 128.98 66.56C128.98 66.7 128.9 66.8367 128.74 66.97C128.587 67.0967 128.42 67.16 128.24 67.16L127.86 67.15C127.667 67.15 127.39 67.1567 127.03 67.17L126.82 67.18C126.674 67.1933 126.564 67.2 126.49 67.2C126.384 67.2 126.237 67.1867 126.05 67.16C126.077 67.4733 126.194 67.72 126.4 67.9C126.607 68.0733 126.83 68.16 127.07 68.16C127.49 68.16 127.784 68.0767 127.95 67.91C128.09 67.81 128.184 67.7467 128.23 67.72C128.277 67.6933 128.35 67.68 128.45 67.68C128.557 67.68 128.65 67.73 128.73 67.83C128.81 67.93 128.85 68.03 128.85 68.13C128.85 68.2433 128.78 68.36 128.64 68.48C128.507 68.5933 128.324 68.7133 128.09 68.84C127.964 68.8933 127.79 68.94 127.57 68.98C127.35 69.02 127.167 69.04 127.02 69.04C126.787 69.04 126.527 68.9733 126.24 68.84C125.954 68.7 125.74 68.5467 125.6 68.38C125.46 68.2133 125.337 67.9767 125.23 67.67C125.13 67.3633 125.08 67.0433 125.08 66.71ZM127.07 66.44C127.544 66.44 127.89 66.4233 128.11 66.39C128.097 66.1967 128.037 66.04 127.93 65.92C127.824 65.7933 127.677 65.6867 127.49 65.6C127.43 65.5733 127.377 65.5533 127.33 65.54C127.284 65.5267 127.23 65.52 127.17 65.52C126.864 65.52 126.604 65.6033 126.39 65.77C126.184 65.9367 126.06 66.15 126.02 66.41C126.354 66.43 126.704 66.44 127.07 66.44ZM136.773 65.42C136.766 65.3133 136.763 65.1533 136.763 64.94V64.56C136.763 64.3067 136.756 64.1167 136.743 63.99C136.729 63.8833 136.723 63.6067 136.723 63.16C136.723 63 136.769 62.8767 136.863 62.79C136.963 62.6967 137.096 62.65 137.263 62.65C137.476 62.65 137.619 62.6967 137.693 62.79C137.766 62.8833 137.803 63.0367 137.803 63.25V63.63L137.793 64.73C137.786 64.9433 137.783 65.2633 137.783 65.69L137.793 66.51C137.799 66.6367 137.803 66.8133 137.803 67.04C137.803 67.22 137.809 67.4767 137.823 67.81C137.836 68.1167 137.843 68.3467 137.843 68.5C137.843 68.6267 137.806 68.7433 137.733 68.85C137.666 68.9567 137.573 69.01 137.453 69.01C136.986 69.01 136.753 68.8533 136.753 68.54C136.753 68.3667 136.759 68.1733 136.773 67.96C136.786 67.8067 136.793 67.5733 136.793 67.26C136.793 67.04 136.786 66.7233 136.773 66.31C136.459 66.3367 135.919 66.35 135.153 66.35C134.673 66.35 134.299 66.35 134.033 66.35C133.766 66.3433 133.573 66.3267 133.453 66.3L133.443 67.45C133.443 67.5233 133.459 67.72 133.493 68.04C133.526 68.2533 133.543 68.44 133.543 68.6C133.543 68.7 133.483 68.7967 133.363 68.89C133.249 68.9767 133.143 69.02 133.043 69.02C132.803 69.02 132.639 68.9633 132.553 68.85C132.466 68.73 132.423 68.55 132.423 68.31L132.413 67.52C132.406 67.4267 132.403 67.2967 132.403 67.13C132.403 66.8833 132.396 66.5467 132.383 66.12C132.369 65.7333 132.363 65.4533 132.363 65.28C132.363 65.02 132.369 64.6567 132.383 64.19C132.396 63.75 132.403 63.4233 132.403 63.21C132.403 62.9967 132.456 62.8533 132.563 62.78C132.669 62.7067 132.789 62.67 132.923 62.67C133.296 62.67 133.483 62.7933 133.483 63.04C133.483 63.48 133.473 63.9 133.453 64.3C133.439 64.8067 133.433 65.1767 133.433 65.41C133.626 65.4567 133.829 65.4867 134.043 65.5C134.256 65.5133 134.556 65.52 134.943 65.52C135.729 65.52 136.339 65.4867 136.773 65.42ZM139.586 62.58C139.82 62.6 140.02 62.6633 140.186 62.77C140.36 62.87 140.446 63.0233 140.446 63.23C140.446 63.3833 140.376 63.5067 140.236 63.6C140.096 63.6867 139.923 63.73 139.716 63.73C139.523 63.73 139.39 63.68 139.316 63.58C139.243 63.48 139.206 63.3767 139.206 63.27C139.206 63.0767 139.23 62.9133 139.276 62.78C139.323 62.64 139.426 62.5733 139.586 62.58ZM139.386 66.71V66.42C139.386 66.0867 139.37 65.7833 139.336 65.51C139.31 65.23 139.293 65.0567 139.286 64.99C139.293 64.9167 139.343 64.8467 139.436 64.78C139.53 64.7133 139.613 64.68 139.686 64.68C139.813 64.68 139.94 64.7067 140.066 64.76C140.2 64.8067 140.283 64.8667 140.316 64.94C140.35 65.1867 140.366 65.3767 140.366 65.51C140.366 65.8033 140.38 66.2833 140.406 66.95L140.416 67.34L140.436 67.72C140.443 67.8267 140.45 67.9533 140.456 68.1C140.463 68.2467 140.466 68.4133 140.466 68.6C140.466 68.7267 140.403 68.8333 140.276 68.92C140.156 69.0067 140.03 69.05 139.896 69.05C139.703 69.05 139.566 69.0067 139.486 68.92C139.413 68.8333 139.376 68.6967 139.376 68.51L139.386 66.71ZM147.945 68.65C147.845 68.4633 147.782 68.2567 147.755 68.03C147.729 67.7967 147.715 67.4767 147.715 67.07C147.715 66.6833 147.662 66.3467 147.555 66.06C147.449 65.7733 147.229 65.63 146.895 65.63C146.769 65.63 146.642 65.67 146.515 65.75C146.395 65.8233 146.305 65.9167 146.245 66.03C146.152 66.21 146.089 66.4067 146.055 66.62C146.022 66.8267 146.005 67.0667 146.005 67.34C146.005 67.5133 146.015 67.69 146.035 67.87C146.035 67.9233 146.039 68.01 146.045 68.13C146.059 68.2433 146.065 68.3467 146.065 68.44C146.065 68.84 145.925 69.04 145.645 69.04C145.279 69.04 145.085 68.8467 145.065 68.46C145.065 68.1867 145.069 68.04 145.075 68.02V67.59C145.075 67.35 145.065 67.1167 145.045 66.89C145.025 66.6633 145.002 66.4933 144.975 66.38C144.915 66.16 144.835 65.99 144.735 65.87C144.642 65.75 144.492 65.69 144.285 65.69C143.992 65.69 143.755 65.8167 143.575 66.07C143.449 66.27 143.365 66.5133 143.325 66.8C143.285 67.1667 143.255 67.4567 143.235 67.67C143.222 67.8767 143.215 68.1167 143.215 68.39C143.215 68.5833 143.182 68.74 143.115 68.86C143.055 68.98 142.939 69.04 142.765 69.04C142.639 69.04 142.505 69.0067 142.365 68.94C142.232 68.8667 142.165 68.77 142.165 68.65C142.165 68.5233 142.179 68.3967 142.205 68.27C142.265 67.89 142.295 67.21 142.295 66.23C142.295 66.07 142.255 65.9167 142.175 65.77C142.102 65.6167 142.012 65.54 141.905 65.54C141.879 65.54 141.829 65.5533 141.755 65.58C141.689 65.6067 141.639 65.62 141.605 65.62C141.519 65.62 141.439 65.58 141.365 65.5C141.299 65.42 141.265 65.3533 141.265 65.3C141.265 65.1333 141.345 64.9933 141.505 64.88C141.672 64.76 141.845 64.7 142.025 64.7C142.272 64.7 142.482 64.7767 142.655 64.93C142.829 65.0833 142.962 65.2967 143.055 65.57C143.209 65.3033 143.415 65.09 143.675 64.93C143.935 64.7633 144.225 64.68 144.545 64.68C144.745 64.68 144.905 64.7067 145.025 64.76C145.152 64.8067 145.255 64.8767 145.335 64.97C145.415 65.0567 145.519 65.19 145.645 65.37C145.812 65.1567 146.025 64.99 146.285 64.87C146.552 64.75 146.825 64.69 147.105 64.69C147.439 64.69 147.739 64.8267 148.005 65.1C148.272 65.3667 148.452 65.6767 148.545 66.03C148.592 66.21 148.615 66.5567 148.615 67.07L148.655 67.65C148.689 67.9967 148.802 68.2067 148.995 68.28C149.222 68.3467 149.335 68.4167 149.335 68.49C149.335 68.65 149.295 68.7667 149.215 68.84C149.155 68.88 149.072 68.9233 148.965 68.97C148.859 69.0167 148.775 69.04 148.715 69.04C148.355 69.04 148.099 68.91 147.945 68.65ZM154.594 68.52C154.594 68.6667 154.514 68.79 154.354 68.89C154.2 68.99 154.057 69.04 153.924 69.04C153.67 69.04 153.467 69.01 153.314 68.95C153.167 68.8833 153.03 68.7633 152.904 68.59C152.73 68.7433 152.494 68.86 152.194 68.94C151.894 69.0133 151.617 69.05 151.364 69.05C150.95 69.05 150.61 68.94 150.344 68.72C150.077 68.4933 149.944 68.1633 149.944 67.73C149.944 67.5433 149.994 67.3733 150.094 67.22C150.194 67.06 150.33 66.92 150.504 66.8C150.697 66.6733 150.917 66.5767 151.164 66.51C151.41 66.4367 151.667 66.4 151.934 66.4C152.074 66.4 152.24 66.4267 152.434 66.48C152.627 66.5333 152.777 66.59 152.884 66.65V66.49C152.884 66.13 152.797 65.8833 152.624 65.75C152.45 65.61 152.17 65.54 151.784 65.54C151.67 65.54 151.557 65.5633 151.444 65.61C151.337 65.6567 151.214 65.72 151.074 65.8C150.887 65.9 150.71 65.95 150.544 65.95C150.484 65.95 150.427 65.91 150.374 65.83C150.32 65.7433 150.294 65.6667 150.294 65.6C150.294 65.4067 150.384 65.24 150.564 65.1C150.75 64.96 150.97 64.8567 151.224 64.79C151.477 64.7167 151.704 64.68 151.904 64.68C152.104 64.68 152.334 64.72 152.594 64.8C152.854 64.8733 153.067 64.9767 153.234 65.11C153.434 65.2833 153.587 65.4867 153.694 65.72C153.807 65.9467 153.864 66.1967 153.864 66.47C153.864 66.5567 153.857 66.6867 153.844 66.86C153.83 67.0467 153.824 67.2067 153.824 67.34C153.824 67.4 153.817 67.49 153.804 67.61C153.79 67.7567 153.784 67.8733 153.784 67.96C153.784 68.04 153.814 68.11 153.874 68.17C153.934 68.2233 154.004 68.25 154.084 68.25L154.364 68.24C154.437 68.24 154.494 68.2667 154.534 68.32C154.574 68.3733 154.594 68.44 154.594 68.52ZM151.374 68.26C151.66 68.26 151.9 68.23 152.094 68.17C152.287 68.11 152.52 68 152.794 67.84C152.82 67.7267 152.837 67.5767 152.844 67.39C152.477 67.2167 152.174 67.13 151.934 67.13C151.66 67.13 151.417 67.18 151.204 67.28C150.99 67.38 150.884 67.5567 150.884 67.81C150.884 67.9367 150.937 68.0433 151.044 68.13C151.15 68.2167 151.26 68.26 151.374 68.26ZM156.379 67.45C156.379 67.7033 156.415 67.9 156.489 68.04C156.569 68.1733 156.669 68.24 156.789 68.24C156.855 68.24 156.919 68.2367 156.979 68.23C157.039 68.2167 157.099 68.21 157.159 68.21C157.225 68.21 157.282 68.2433 157.329 68.31C157.382 68.3767 157.409 68.45 157.409 68.53C157.409 68.69 157.332 68.8167 157.179 68.91C157.032 68.9967 156.832 69.04 156.579 69.04C156.399 69.04 156.215 68.9867 156.029 68.88C155.849 68.7667 155.699 68.5933 155.579 68.36C155.459 68.12 155.399 67.8233 155.399 67.47C155.399 66.71 155.412 66.0667 155.439 65.54C155.472 64.9133 155.489 64.1233 155.489 63.17C155.489 62.87 155.505 62.66 155.539 62.54C155.579 62.4467 155.642 62.3767 155.729 62.33C155.822 62.2767 155.919 62.25 156.019 62.25C156.119 62.25 156.205 62.2667 156.279 62.3C156.359 62.3333 156.412 62.3867 156.439 62.46C156.465 62.54 156.482 62.62 156.489 62.7C156.502 62.7733 156.509 62.88 156.509 63.02C156.509 63.2933 156.499 63.5567 156.479 63.81C156.465 64.1167 156.459 64.34 156.459 64.48C156.405 65.6533 156.379 66.6433 156.379 67.45ZM161.891 69.04C161.664 69.04 161.491 69.0067 161.371 68.94C161.251 68.8667 161.121 68.7333 160.981 68.54C160.807 68.6933 160.547 68.8167 160.201 68.91C159.861 69.0033 159.567 69.05 159.321 69.05C158.914 69.05 158.584 68.94 158.331 68.72C158.084 68.4933 157.961 68.1633 157.961 67.73C157.961 67.5433 158.011 67.3733 158.111 67.22C158.217 67.06 158.354 66.92 158.521 66.8C158.707 66.6733 158.927 66.5733 159.181 66.5C159.441 66.4267 159.677 66.39 159.891 66.39C160.251 66.39 160.571 66.4233 160.851 66.49V66.48C160.851 66.12 160.761 65.8733 160.581 65.74C160.407 65.6 160.127 65.53 159.741 65.53C159.494 65.53 159.281 65.64 159.101 65.86C159.034 65.9467 158.894 65.99 158.681 65.99C158.574 65.99 158.494 65.9467 158.441 65.86C158.394 65.7667 158.371 65.6733 158.371 65.58C158.371 65.3867 158.451 65.22 158.611 65.08C158.777 64.94 158.977 64.8367 159.211 64.77C159.444 64.6967 159.661 64.66 159.861 64.66C160.054 64.66 160.284 64.7 160.551 64.78C160.817 64.86 161.034 64.9667 161.201 65.1C161.401 65.2733 161.554 65.4767 161.661 65.71C161.774 65.9367 161.831 66.1867 161.831 66.46C161.831 66.5467 161.824 66.6767 161.811 66.85C161.797 67.05 161.791 67.2133 161.791 67.34C161.791 67.4 161.784 67.4767 161.771 67.57C161.757 67.69 161.751 67.79 161.751 67.87C161.751 67.9567 161.777 68.04 161.831 68.12C161.884 68.2 161.957 68.2667 162.051 68.32C162.137 68.3667 162.194 68.4167 162.221 68.47C162.247 68.5233 162.261 68.5833 162.261 68.65C162.261 68.7167 162.217 68.8 162.131 68.9C162.051 68.9933 161.971 69.04 161.891 69.04ZM159.891 67.13C159.631 67.13 159.401 67.18 159.201 67.28C159.001 67.38 158.901 67.5567 158.901 67.81C158.901 67.9367 158.944 68.0433 159.031 68.13C159.124 68.2167 159.224 68.26 159.331 68.26C159.617 68.26 159.857 68.23 160.051 68.17C160.244 68.11 160.477 68 160.751 67.84C160.784 67.7333 160.804 67.5833 160.811 67.39C160.811 67.3167 160.814 67.26 160.821 67.22C160.461 67.16 160.151 67.13 159.891 67.13ZM164.142 71.04C163.896 71.04 163.686 70.9967 163.512 70.91C163.339 70.83 163.209 70.73 163.122 70.61C163.042 70.4967 163.002 70.3967 163.002 70.31C163.002 70.19 163.046 70.0833 163.132 69.99C163.219 69.9033 163.316 69.86 163.422 69.86C163.482 69.86 163.539 69.88 163.592 69.92C163.652 69.96 163.689 69.9833 163.702 69.99C163.736 70.0167 163.779 70.0567 163.832 70.11C163.886 70.17 163.939 70.2 163.992 70.2C164.146 70.2 164.269 70.1033 164.362 69.91C164.456 69.7167 164.546 69.4033 164.632 68.97C164.192 68.2433 163.776 67.5033 163.382 66.75C162.989 65.9967 162.792 65.4867 162.792 65.22C162.792 65.0533 162.852 64.93 162.972 64.85C163.092 64.77 163.229 64.73 163.382 64.73C163.496 64.73 163.586 64.7533 163.652 64.8C163.719 64.84 163.772 64.9167 163.812 65.03C163.999 65.5967 164.189 66.1033 164.382 66.55C164.576 66.99 164.799 67.4333 165.052 67.88C165.172 67.6133 165.316 67.1767 165.482 66.57C165.582 66.2167 165.669 65.93 165.742 65.71C165.816 65.4833 165.899 65.2767 165.992 65.09C166.052 64.97 166.126 64.8733 166.212 64.8C166.306 64.7267 166.406 64.69 166.512 64.69C166.632 64.69 166.756 64.7333 166.882 64.82C167.016 64.9 167.082 64.9967 167.082 65.11C167.082 65.1433 167.059 65.2233 167.012 65.35C166.752 65.93 166.522 66.49 166.322 67.03C166.122 67.5633 165.936 68.15 165.762 68.79C165.656 69.13 165.542 69.46 165.422 69.78C165.302 70.1067 165.219 70.31 165.172 70.39C165.032 70.5767 164.882 70.73 164.722 70.85C164.562 70.9767 164.369 71.04 164.142 71.04ZM172.279 68.52C172.279 68.6667 172.199 68.79 172.039 68.89C171.879 68.99 171.732 69.04 171.599 69.04C171.352 69.04 171.152 69.01 170.999 68.95C170.852 68.8833 170.712 68.7633 170.579 68.59C170.412 68.7433 170.179 68.86 169.879 68.94C169.579 69.0133 169.302 69.05 169.049 69.05C168.636 69.05 168.292 68.94 168.019 68.72C167.752 68.4933 167.619 68.1633 167.619 67.73C167.619 67.5433 167.676 67.3567 167.789 67.17C167.902 66.9767 168.042 66.8233 168.209 66.71C168.389 66.59 168.592 66.51 168.819 66.47C169.046 66.4233 169.309 66.4 169.609 66.4C169.749 66.4 169.916 66.4267 170.109 66.48C170.302 66.5333 170.456 66.59 170.569 66.65V66.49C170.569 66.13 170.479 65.8833 170.299 65.75C170.126 65.61 169.846 65.54 169.459 65.54C169.339 65.54 169.229 65.56 169.129 65.6C169.036 65.6333 168.926 65.6833 168.799 65.75C168.679 65.8167 168.566 65.85 168.459 65.85C168.366 65.85 168.276 65.8133 168.189 65.74C168.102 65.66 168.059 65.5767 168.059 65.49C168.059 65.21 168.232 65.0067 168.579 64.88C168.932 64.7467 169.292 64.68 169.659 64.68C169.846 64.68 170.059 64.72 170.299 64.8C170.539 64.8733 170.742 64.9767 170.909 65.11C171.109 65.2767 171.262 65.4767 171.369 65.71C171.482 65.9433 171.539 66.1967 171.539 66.47C171.539 66.5567 171.532 66.6867 171.519 66.86C171.506 67.0467 171.499 67.2067 171.499 67.34L171.489 67.61C171.476 67.7567 171.469 67.8733 171.469 67.96C171.469 68.04 171.496 68.11 171.549 68.17C171.609 68.2233 171.679 68.25 171.759 68.25L172.039 68.24C172.112 68.24 172.169 68.27 172.209 68.33C172.256 68.3833 172.279 68.4467 172.279 68.52ZM169.049 68.26C169.336 68.26 169.576 68.23 169.769 68.17C169.962 68.11 170.196 68 170.469 67.84C170.496 67.7267 170.512 67.5767 170.519 67.39C170.152 67.2167 169.849 67.13 169.609 67.13C169.382 67.13 169.199 67.14 169.059 67.16C168.919 67.1733 168.792 67.23 168.679 67.33C168.566 67.43 168.509 67.59 168.509 67.81C168.509 67.9367 168.569 68.0433 168.689 68.13C168.816 68.2167 168.936 68.26 169.049 68.26ZM175.725 66.75C175.778 66.7833 175.881 66.8467 176.035 66.94C176.195 67.0267 176.301 67.13 176.355 67.25C176.408 67.37 176.435 67.5367 176.435 67.75C176.435 67.99 176.365 68.2033 176.225 68.39C176.085 68.57 175.905 68.71 175.685 68.81C175.525 68.8833 175.328 68.94 175.095 68.98C174.868 69.02 174.688 69.04 174.555 69.04C174.421 69.04 174.248 69.02 174.035 68.98C173.828 68.94 173.685 68.9033 173.605 68.87C173.398 68.75 173.218 68.6033 173.065 68.43C172.918 68.2567 172.845 68.08 172.845 67.9C172.845 67.7667 172.888 67.6633 172.975 67.59C173.061 67.51 173.175 67.47 173.315 67.47C173.381 67.47 173.451 67.4967 173.525 67.55C173.598 67.5967 173.648 67.6467 173.675 67.7C173.748 67.8733 173.871 68.0033 174.045 68.09C174.218 68.1767 174.395 68.22 174.575 68.22C174.808 68.22 175.025 68.1833 175.225 68.11C175.425 68.03 175.525 67.9233 175.525 67.79C175.525 67.73 175.508 67.6833 175.475 67.65C175.448 67.61 175.408 67.57 175.355 67.53C175.261 67.4633 175.121 67.41 174.935 67.37C174.748 67.3233 174.628 67.2933 174.575 67.28C174.301 67.22 174.035 67.13 173.775 67.01C173.515 66.8833 173.308 66.7333 173.155 66.56C173.001 66.3867 172.925 66.1633 172.925 65.89C172.925 65.71 172.991 65.5233 173.125 65.33C173.258 65.13 173.408 64.99 173.575 64.91C173.695 64.8633 173.895 64.8133 174.175 64.76C174.461 64.7067 174.655 64.68 174.755 64.68C174.908 64.68 175.075 64.6967 175.255 64.73C175.435 64.7567 175.571 64.8033 175.665 64.87C175.845 64.9767 175.991 65.09 176.105 65.21C176.218 65.3233 176.275 65.4533 176.275 65.6C176.275 65.6733 176.258 65.7533 176.225 65.84C176.191 65.92 176.151 65.97 176.105 65.99C176.005 66.0367 175.888 66.06 175.755 66.06C175.695 66.06 175.645 66.0433 175.605 66.01C175.571 65.9767 175.525 65.9233 175.465 65.85C175.391 65.7367 175.321 65.67 175.255 65.65C175.175 65.63 175.058 65.6067 174.905 65.58C174.751 65.5467 174.648 65.53 174.595 65.53C174.441 65.53 174.281 65.5733 174.115 65.66C173.955 65.7467 173.875 65.8467 173.875 65.96C173.875 66.02 173.898 66.0667 173.945 66.1C173.998 66.1333 174.051 66.1633 174.105 66.19C174.165 66.2167 174.205 66.2333 174.225 66.24C174.365 66.3067 174.518 66.3633 174.685 66.41C174.858 66.4567 174.965 66.4867 175.005 66.5C175.365 66.5867 175.605 66.67 175.725 66.75Z" fill="#1F5099"/>
</svg>
